<svg width="48" height="48" viewBox="0 0 48 48" fill="none" xmlns="http://www.w3.org/2000/svg">
<path fill-rule="evenodd" clip-rule="evenodd" d="M10.3934 10.3934C13.2064 7.58035 17.0218 6 21 6C24.9782 6 28.7936 7.58035 31.6066 10.3934C34.4196 13.2064 36 17.0218 36 21C36 24.3056 34.9089 27.4986 32.9262 30.0977L41.4142 38.5858C42.1953 39.3668 42.1953 40.6332 41.4142 41.4142C40.6332 42.1953 39.3668 42.1953 38.5858 41.4142L30.0977 32.9262C27.4986 34.9089 24.3056 36 21 36C17.0218 36 13.2064 34.4196 10.3934 31.6066C7.58035 28.7936 6 24.9782 6 21C6 17.0218 7.58035 13.2064 10.3934 10.3934ZM21 10C18.0826 10 15.2847 11.1589 13.2218 13.2218C11.1589 15.2847 10 18.0826 10 21C10 23.9174 11.1589 26.7153 13.2218 28.7782C15.2847 30.8411 18.0826 32 21 32C23.9174 32 26.7153 30.8411 28.7782 28.7782C30.8411 26.7153 32 23.9174 32 21C32 18.0826 30.8411 15.2847 28.7782 13.2218C26.7153 11.1589 23.9174 10 21 10Z" fill="white"/>
</svg>
